<svg width="2610" height="837" viewBox="0 0 2610 837" fill="none" xmlns="http://www.w3.org/2000/svg">
<path d="M2094.65 599.585H2190.65C2190.65 688.585 2256.65 751.585 2353.65 751.585C2441.65 751.585 2513.65 697.585 2513.65 616.585C2513.65 535.585 2454.65 481.585 2333.65 452.585C2180.65 414.585 2105.65 336.585 2105.65 220.585C2105.65 82.5854 2214.65 0.585449 2352.65 0.585449C2490.65 0.585449 2598.65 96.5854 2598.65 229.585H2504.65C2504.65 150.585 2439.65 86.5854 2349.65 86.5854C2266.65 86.5854 2200.65 139.585 2200.65 214.585C2200.65 289.585 2258.65 342.585 2376.65 371.585C2530.65 411.585 2609.65 490.585 2609.65 607.585C2609.65 745.585 2500.65 836.585 2352.65 836.585C2204.65 836.585 2094.65 739.585 2094.65 599.585ZM1896.65 818.585V19.5854H1986.65V818.585H1896.65ZM991.653 761.585L1056.65 827.585L1400.65 483.585L1744.65 827.585L1811.65 761.585L1466.65 418.585L1811.65 72.5854L1744.65 8.58545L1400.65 352.585L1056.65 8.58545L991.653 72.5854L1335.65 418.585L991.653 761.585ZM95.6533 418.585C95.6533 600.585 232.653 741.585 420.653 741.585C608.653 741.585 745.653 600.585 745.653 418.585C745.653 236.585 608.653 95.5854 420.653 95.5854C232.653 95.5854 95.6533 238.585 95.6533 418.585ZM0.65332 418.585C0.65332 192.585 187.653 0.585449 420.653 0.585449C600.653 2.58545 714.653 101.585 779.653 225.585L816.653 19.5854H906.653L835.653 418.585L906.653 818.585H816.653L779.653 613.585C714.653 737.585 600.653 836.585 420.653 836.585C187.653 836.585 0.65332 646.585 0.65332 418.585Z" fill="black"/>
</svg>
