<svg width="2570" height="840" viewBox="0 0 2570 840" fill="none" xmlns="http://www.w3.org/2000/svg">
<path d="M2078.65 610.666H2118.65C2118.65 720.666 2205.65 799.666 2327.65 799.666C2439.65 799.666 2528.65 738.666 2528.65 629.666C2528.65 526.666 2460.65 465.666 2318.65 428.666C2167.65 397.666 2090.65 318.666 2090.65 201.666C2090.65 84.6656 2204.65 -2.33439 2323.65 0.665612C2450.65 -2.33439 2559.65 90.6656 2559.65 223.666H2521.65C2521.65 112.666 2432.65 40.6656 2323.65 40.6656C2223.65 40.6656 2130.65 110.666 2130.65 201.666C2130.65 300.666 2200.65 360.666 2331.65 394.666C2492.65 431.666 2569.65 505.666 2569.65 624.666C2569.65 743.666 2461.65 839.666 2323.65 839.666C2185.65 839.666 2078.65 742.666 2078.65 610.666ZM1926.65 820.666V20.6656H1966.65V820.666H1926.65ZM1005.65 801.666L1035.65 831.666L1416.65 450.666L1797.65 830.666L1826.65 800.666L1445.65 419.666L1826.65 40.6656L1796.65 10.6656L1415.65 391.666L1034.65 11.6656L1005.65 41.6656L1386.65 419.666L1005.65 801.666ZM45.6533 419.666C45.6533 627.666 212.653 794.666 419.653 794.666C611.653 794.666 793.653 648.666 793.653 419.666C793.653 190.666 611.653 45.6656 419.653 45.6656C212.653 45.6656 45.6533 213.666 45.6533 419.666ZM0.65332 419.666C0.65332 188.666 188.653 0.665612 419.653 0.665612C582.653 0.665612 761.653 103.666 817.653 299.666L869.653 20.6656H910.653L833.653 419.666L910.653 820.666H869.653L817.653 540.666C761.653 736.666 582.653 839.666 419.653 839.666C188.653 839.666 0.65332 651.666 0.65332 419.666Z" fill="black"/>
</svg>
