<svg width="498" height="160" viewBox="0 0 498 160" fill="none" xmlns="http://www.w3.org/2000/svg">
  <path
    d="M399.568 114.238H417.877C417.877 131.211 430.464 143.226 448.963 143.226C465.746 143.226 479.477 132.928 479.477 117.48C479.477 102.032 468.225 91.7335 445.149 86.2027C415.97 78.9556 401.666 64.0799 401.666 41.9571C401.666 15.6386 422.454 0 448.772 0C475.091 0 495.688 18.3085 495.688 43.6735H477.761C477.761 28.6071 465.364 16.4014 448.2 16.4014C432.371 16.4014 419.784 26.5093 419.784 40.8128C419.784 55.1164 430.845 65.2242 453.349 70.7549C482.719 78.3835 497.786 93.4499 497.786 115.763C497.786 142.082 476.998 159.437 448.772 159.437C420.547 159.437 399.568 140.938 399.568 114.238ZM361.807 156.004V3.62357H378.971V156.004H361.807ZM189.211 145.133L201.607 157.721L267.213 92.1149L332.818 157.721L345.596 145.133L279.8 79.7185L345.596 13.7314L332.818 1.52571L267.213 67.1313L201.607 1.52571L189.211 13.7314L254.816 79.7185L189.211 145.133ZM18.3307 79.7185C18.3307 114.428 44.4586 141.319 80.3128 141.319C116.167 141.319 142.295 114.428 142.295 79.7185C142.295 45.0085 116.167 18.1178 80.3128 18.1178C44.4586 18.1178 18.3307 45.3899 18.3307 79.7185ZM0.212891 79.7185C0.212891 36.6171 35.8764 0 80.3128 0C114.641 0.381428 136.383 19.2621 148.779 42.9107L155.836 3.62357H173L159.459 79.7185L173 156.004H155.836L148.779 116.908C136.383 140.556 114.641 159.437 80.3128 159.437C35.8764 159.437 0.212891 123.201 0.212891 79.7185Z"
    fill="#252026" />
</svg>
