<svg width="34" height="26" viewBox="0 0 34 26" fill="none" xmlns="http://www.w3.org/2000/svg">
<path d="M29.1211 3.90921C29.1211 3.90921 25.6469 1.18951 21.5454 0.878906L21.1757 1.61982C24.8833 2.52739 26.5848 3.82588 28.3636 5.42436C25.2984 3.85921 22.2726 2.39406 16.9999 2.39406C11.7272 2.39406 8.70295 3.85921 5.63628 5.42436C7.41507 3.82588 9.43931 2.38194 12.8242 1.61982L12.4545 0.878906C8.15143 1.28497 4.87871 3.90921 4.87871 3.90921C4.87871 3.90921 0.999919 9.53497 0.333252 20.5759C4.24234 25.0865 10.1817 25.1213 10.1817 25.1213L11.4242 23.4668C9.31507 22.7335 6.93628 21.4244 4.87871 19.0607C7.33174 20.9168 11.0348 22.8486 16.9999 22.8486C22.9666 22.8486 26.6681 20.9168 29.1211 19.0607C27.0636 21.4244 24.6863 22.7335 22.5757 23.4668L23.8181 25.1213C23.8181 25.1213 29.7575 25.0865 33.6666 20.5759C32.9999 9.53497 29.1211 3.90921 29.1211 3.90921ZM12.0757 17.5456C10.6105 17.5456 9.42416 16.1895 9.42416 14.5153C9.42416 12.841 10.6105 11.485 12.0757 11.485C13.5408 11.485 14.7272 12.841 14.7272 14.5153C14.7272 16.1895 13.5408 17.5456 12.0757 17.5456ZM21.9242 17.5456C20.459 17.5456 19.2726 16.1895 19.2726 14.5153C19.2726 12.841 20.459 11.485 21.9242 11.485C23.3893 11.485 24.5757 12.841 24.5757 14.5153C24.5757 16.1895 23.3893 17.5456 21.9242 17.5456Z" fill="#252026"/>
</svg>
