<svg width="108" height="24" viewBox="0 0 108 24" fill="none" xmlns="http://www.w3.org/2000/svg">
<path d="M57.3864 16.4797H60.0172C60.0172 18.9282 61.826 20.6615 64.4843 20.6615C66.8959 20.6615 68.8691 19.1758 68.8691 16.9474C68.8691 14.7189 67.2522 13.2333 63.9362 12.4354C59.7432 11.39 57.6878 9.24402 57.6878 6.05263C57.6878 2.25598 60.675 0 64.4569 0C68.2388 0 71.1985 2.64115 71.1985 6.30024H68.6225C68.6225 4.12679 66.8411 2.36603 64.3747 2.36603C62.1 2.36603 60.2913 3.82416 60.2913 5.88756C60.2913 7.95096 61.8808 9.40909 65.1146 10.2069C69.335 11.3074 71.5 13.4809 71.5 16.6998C71.5 20.4964 68.5128 23 64.4569 23C60.4009 23 57.3864 20.3313 57.3864 16.4797ZM51.9601 22.5048V0.522727H54.4266V22.5048H51.9601ZM27.1585 20.9366L28.9398 22.7524L38.3672 13.2883L47.7946 22.7524L49.6307 20.9366L40.1759 11.5L49.6307 1.98086L47.7946 0.220096L38.3672 9.68421L28.9398 0.220096L27.1585 1.98086L36.5859 11.5L27.1585 20.9366ZM2.60349 11.5C2.60349 16.5072 6.35799 20.3864 11.5102 20.3864C16.6623 20.3864 20.4168 16.5072 20.4168 11.5C20.4168 6.49282 16.6623 2.61364 11.5102 2.61364C6.35799 2.61364 2.60349 6.54785 2.60349 11.5ZM0 11.5C0 5.2823 5.12476 0 11.5102 0C16.4431 0.0550239 19.5673 2.77871 21.3486 6.19019L22.3626 0.522727H24.8291L22.8833 11.5L24.8291 22.5048H22.3626L21.3486 16.8648C19.5673 20.2763 16.4431 23 11.5102 23C5.12476 23 0 17.7727 0 11.5Z" fill="#F4F4EF"/>
<path d="M80 21.8856L81.2426 24L92.7574 17.4096V23.0114H95.215V17.4096L106.757 24L108 21.8856L96.4852 15.2677L101.29 12.5217L100.047 10.3799L95.215 13.1533L95.2426 0H92.7574V13.1533L87.9527 10.3799L86.7101 12.5217L91.5148 15.2677L80 21.8856Z" fill="#F4F4EF"/>
</svg>
