
<svg width="44" height="48" viewBox="0 0 44 48" fill="none" xmlns="http://www.w3.org/2000/svg">
<path fill-rule="evenodd" clip-rule="evenodd" d="M19.9446 3.36V0H23.3046V3.36H19.9446Z" fill="#75A1F6"/>
<path fill-rule="evenodd" clip-rule="evenodd" d="M19.9446 48V44.64H23.3046V48H19.9446Z" fill="#75A1F6"/>
<path fill-rule="evenodd" clip-rule="evenodd" d="M19.9446 14.8798V8.15985H23.3046V14.8798H19.9446Z" fill="#75A1F6"/>
<path fill-rule="evenodd" clip-rule="evenodd" d="M19.9446 39.8984V33.1784H23.3046V39.8984H19.9446Z" fill="#75A1F6"/>
<path fill-rule="evenodd" clip-rule="evenodd" d="M38.6593 12.2251L41.5692 10.5451L43.2492 13.4549L40.3393 15.1349L38.6593 12.2251Z" fill="#75A1F6"/>
<path fill-rule="evenodd" clip-rule="evenodd" d="M0 34.5451L2.90985 32.8651L4.58985 35.7749L1.68 37.4549L0 34.5451Z" fill="#75A1F6"/>
<path fill-rule="evenodd" clip-rule="evenodd" d="M28.6829 17.985L34.5026 14.625L36.1826 17.5349L30.3629 20.8949L28.6829 17.985Z" fill="#75A1F6"/>
<path fill-rule="evenodd" clip-rule="evenodd" d="M7.01615 30.4943L12.8358 27.1343L14.5158 30.0442L8.69615 33.4042L7.01615 30.4943Z" fill="#75A1F6"/>
<path fill-rule="evenodd" clip-rule="evenodd" d="M4.58986 12.2251L1.68002 10.5451L1.76111e-05 13.4549L2.90986 15.1349L4.58986 12.2251Z" fill="#75A1F6"/>
<path fill-rule="evenodd" clip-rule="evenodd" d="M43.2492 34.5451L40.3394 32.8651L38.6594 35.7749L41.5692 37.4549L43.2492 34.5451Z" fill="#75A1F6"/>
<path fill-rule="evenodd" clip-rule="evenodd" d="M14.5663 17.985L8.74662 14.625L7.06662 17.5349L12.8863 20.8949L14.5663 17.985Z" fill="#75A1F6"/>
<path fill-rule="evenodd" clip-rule="evenodd" d="M36.2331 30.4943L30.4134 27.1343L28.7334 30.0442L34.5531 33.4042L36.2331 30.4943Z" fill="#75A1F6"/>
</svg>
