<svg width="34" height="28" viewBox="0 0 34 28" fill="none" xmlns="http://www.w3.org/2000/svg">
<path d="M10.8155 27.6371C23.3957 27.6371 30.2755 17.1435 30.2755 8.04305C30.2755 7.74304 30.2755 7.44757 30.2551 7.1521C31.5938 6.17706 32.7484 4.97019 33.6666 3.5883C32.4188 4.14515 31.096 4.5088 29.7391 4.67017C31.1665 3.81104 32.2347 2.45643 32.7461 0.860907C31.4051 1.66322 29.9346 2.22915 28.405 2.53371C26.2822 0.263153 22.9138 -0.291418 20.1864 1.1791C17.459 2.64962 16.0499 5.77931 16.7476 8.81581C11.2474 8.53626 6.12442 5.92023 2.65154 1.62003C0.83782 4.76563 1.76514 8.79081 4.76982 10.8114C3.68113 10.7795 2.61745 10.4841 1.66513 9.94996V10.0363C1.66513 13.316 3.96069 16.1389 7.15174 16.7866C6.14488 17.0639 5.09029 17.1048 4.06524 16.9071C4.96074 19.7118 7.52903 21.6346 10.4542 21.6891C8.0336 23.6051 5.04028 24.6438 1.9606 24.6438C1.41512 24.6415 0.871913 24.6074 0.333252 24.5438C3.46067 26.5643 7.09947 27.6348 10.8155 27.6303" fill="#252026"/>
</svg>
