<svg width="192" height="62" viewBox="0 0 192 62" fill="none" xmlns="http://www.w3.org/2000/svg">
  <path
    d="M153.336 43.8627H160.366C160.366 50.3799 165.199 54.9931 172.302 54.9931C178.746 54.9931 184.018 51.0389 184.018 45.1076C184.018 39.1762 179.698 35.222 170.838 33.0984C159.634 30.3158 154.142 24.6041 154.142 16.1098C154.142 6.00458 162.124 0 172.229 0C182.334 0 190.243 7.02975 190.243 16.7689H183.359C183.359 10.984 178.6 6.29748 172.009 6.29748C165.931 6.29748 161.098 10.1785 161.098 15.6705C161.098 21.1625 165.346 25.0435 173.986 27.167C185.263 30.0961 191.048 35.881 191.048 44.4485C191.048 54.5538 183.066 61.2174 172.229 61.2174C161.391 61.2174 153.336 54.1144 153.336 43.8627ZM138.838 59.8993V1.3913H145.428V59.8993H138.838ZM72.5675 55.7254L77.3272 60.5584L102.517 35.3684L127.707 60.5584L132.613 55.7254L107.35 30.6087L132.613 5.27231L127.707 0.585812L102.517 25.7757L77.3272 0.585812L72.5675 5.27231L97.7574 30.6087L72.5675 55.7254ZM6.95652 30.6087C6.95652 43.9359 16.9886 54.2609 30.7551 54.2609C44.5217 54.2609 54.5538 43.9359 54.5538 30.6087C54.5538 17.2815 44.5217 6.95652 30.7551 6.95652C16.9886 6.95652 6.95652 17.4279 6.95652 30.6087ZM0 30.6087C0 14.0595 13.6934 0 30.7551 0C43.9359 0.146453 52.2837 7.39588 57.0435 16.476L59.7529 1.3913H66.3432L61.1442 30.6087L66.3432 59.8993H59.7529L57.0435 44.8879C52.2837 53.968 43.9359 61.2174 30.7551 61.2174C13.6934 61.2174 0 47.3044 0 30.6087Z"
    fill="#ffffff" />
</svg>
